# xmcd CD database file
#
# Track frame offsets:
#	150
#	11683
#	22798
#	34525
#	43733
#	55263
#	65438
#	75590
#	87275
#	98340
#	108858
#	119988
#	128830
#
# Disc length: 1856 seconds
#
# Revision: 2
# Processed by: cddbd v1.5.1PL0 Copyright (c) Steve Scherf et al.
# Submitted via: CDex 1.51
#
DISCID=9a073e0d
DTITLE=Patsy Cline - The Legendary Patsy Cline Vol 2
DYEAR=1994
DGENRE=Country
TTITLE0=Let The Teardrops Fall
TTITLE1=I Can't Forget
TTITLE2=Today, Tomorrow And Forever
TTITLE3=I Love You Honey
TTITLE4=Never No More
TTITLE5=Pick Me Up On Your Way Down
TTITLE6=Three Cigarettes In An Ashtray
TTITLE7=In Care Of The Blues
TTITLE8=Stop The World And Let Me Off
TTITLE9=Walking Dream
TTITLE10=Hidin' Out
TTITLE11=Ain't No Wheels On This Ship
TTITLE12=Honky Tonk Merry Go Round
EXTD=YEAR: 1994
EXTT0=
EXTT1=
EXTT2=
EXTT3=
EXTT4=
EXTT5=
EXTT6=
EXTT7=
EXTT8=
EXTT9=
EXTT10=
EXTT11=
EXTT12=
PLAYORDER=
